 <svg  version="1.0" xmlns="http://www.w3.org/2000/svg"  width="491.000000pt" height="166.000000pt" viewBox="0 0 491.000000 166.000000"  preserveAspectRatio="xMidYMid meet">  <g transform="translate(0.000000,166.000000) scale(0.100000,-0.100000)" fill="#313131" stroke="none"> <path d="M1993 1640 c-28 -12 -49 -45 -58 -95 -4 -21 -29 -100 -57 -175 -52 -139 -117 -318 -214 -582 -30 -84 -73 -198 -95 -253 -21 -55 -54 -144 -72 -197 -32 -92 -33 -99 -17 -113 10 -9 37 -17 60 -18 l43 -2 37 68 c21 39 53 126 74 200 21 73 39 140 42 149 3 11 19 20 42 23 20 4 125 29 232 57 107 28 203 52 215 54 11 1 36 5 55 9 l36 6 28 -63 c86 -188 153 -334 197 -426 27 -56 49 -109 49 -117 0 -25 24 -17 88 31 37 27 59 51 56 57 -4 7 -17 26 -29 42 -36 49 -122 251 -165 386 -22 70 -40 129 -40 133 0 3 36 6 80 6 108 0 130 11 130 66 0 54 -8 57 -137 58 -99 1 -103 2 -133 31 -30 28 -100 155 -100 180 0 14 -92 250 -116 297 -29 57 -94 138 -136 168 -43 31 -59 35 -95 20z m95 -277 c36 -46 57 -86 88 -171 38 -100 84 -266 76 -273 -14 -12 -210 -88 -241 -94 -17 -3 -60 -12 -94 -20 -63 -15 -117 -19 -117 -10 0 3 13 31 29 63 16 31 58 127 95 212 57 137 76 193 100 303 9 37 29 34 64 -10z"/> <path d="M380 1524 c-98 -21 -162 -44 -197 -70 l-31 -24 -35 35 c-24 24 -44 35 -65 35 -51 0 -55 -15 -41 -142 8 -73 13 -276 14 -578 0 -428 2 -468 19 -508 21 -50 40 -62 93 -62 70 0 67 -8 73 275 l5 256 120 -61 c115 -59 378 -225 590 -372 170 -118 230 -148 300 -148 69 0 105 19 105 54 0 31 -38 63 -155 130 -55 31 -107 61 -115 66 -8 5 -44 26 -80 46 -36 20 -94 53 -130 74 -36 20 -105 59 -155 85 -49 26 -97 53 -105 60 -8 6 -78 44 -155 84 -134 70 -175 96 -175 111 0 10 143 71 280 118 274 95 346 124 425 167 89 48 136 88 161 137 26 50 -1 95 -91 153 -119 75 -473 118 -655 79z m548 -137 c34 -31 34 -55 -3 -90 -66 -64 -430 -226 -566 -252 -13 -3 -47 -10 -76 -16 -28 -7 -59 -9 -68 -6 -23 10 -54 86 -61 154 -12 109 25 153 159 194 101 31 150 36 383 35 190 -1 214 -3 232 -19z"/> <path d="M3795 860 c-4 -364 -4 -664 -1 -667 3 -4 75 -1 159 6 83 7 185 15 225 16 75 4 168 11 255 21 l47 6 0 64 0 64 -37 -5 c-84 -12 -284 -25 -379 -25 l-102 0 -6 43 c-3 23 -6 100 -7 172 l-2 130 264 37 c145 20 265 37 267 37 4 2 2 121 -2 121 -2 0 -75 -11 -163 -24 -167 -26 -208 -30 -314 -27 l-66 1 -8 148 c-5 117 -3 168 10 247 9 55 20 104 25 108 18 20 98 29 303 34 l217 6 0 69 0 69 -317 -3 c-175 -1 -327 1 -339 5 l-21 7 -8 -660z"/> <path d="M3199 1382 c-25 -15 -27 -21 -33 -126 -25 -422 -25 -966 -1 -1027 7 -18 67 -49 95 -49 53 0 50 -37 50 610 0 536 -2 598 -16 604 -26 10 -68 5 -95 -12z"/> </g> </svg> 