<?xml version="1.0" standalone="no"?>
<!DOCTYPE svg PUBLIC "-//W3C//DTD SVG 20010904//EN"
 "http://www.w3.org/TR/2001/REC-SVG-20010904/DTD/svg10.dtd">
<svg version="1.0" xmlns="http://www.w3.org/2000/svg"
 width="672.000000pt" height="672.000000pt" viewBox="0 0 672.000000 672.000000"
 preserveAspectRatio="xMidYMid meet">
<metadata>
Created by potrace 1.14, written by Peter Selinger 2001-2017
</metadata>
<g transform="translate(0.000000,672.000000) scale(0.100000,-0.100000)"
fill="#000000" stroke="none">
<path d="M2330 6232 c-19 -2 -39 -7 -45 -12 -10 -9 -119 -37 -145 -39 -8 0
-35 -4 -60 -10 -25 -5 -61 -12 -80 -15 -65 -11 -95 -17 -115 -23 -11 -4 -24
-8 -30 -9 -5 -1 -37 -9 -70 -18 -33 -10 -64 -18 -70 -20 -50 -13 -154 -50
-215 -75 -41 -17 -81 -31 -87 -31 -7 0 -13 -4 -13 -10 0 -5 -7 -10 -15 -10
-18 0 -57 -20 -67 -35 -4 -5 -8 -6 -8 -2 0 12 -168 -106 -234 -165 -19 -17
-21 -16 -50 15 -17 17 -43 48 -57 67 -44 57 -103 118 -142 145 -168 113 -359
94 -419 -43 -18 -39 -19 -59 -15 -161 3 -64 8 -129 10 -146 3 -16 8 -61 12
-100 4 -38 9 -83 11 -100 4 -32 12 -112 19 -185 9 -98 25 -391 30 -560 18
-568 24 -939 30 -1940 5 -719 12 -1395 15 -1395 0 0 2 -65 5 -145 7 -215 22
-404 40 -495 14 -75 29 -130 41 -154 8 -14 14 -31 14 -37 0 -22 72 -94 123
-123 79 -45 180 -74 237 -69 54 5 205 75 269 125 4 3 6 100 16 783 11 774 26
1167 51 1305 3 17 7 43 9 59 5 37 7 38 53 38 92 -1 431 -157 791 -364 46 -26
88 -48 92 -48 5 0 9 -5 9 -11 0 -5 4 -8 9 -4 5 3 12 1 15 -3 3 -5 47 -33 98
-63 51 -30 101 -58 110 -64 10 -5 56 -34 104 -62 48 -29 91 -53 96 -53 4 0 8
-4 8 -10 0 -5 7 -10 15 -10 8 0 15 -4 15 -10 0 -5 6 -10 14 -10 8 0 21 -6 28
-12 16 -15 47 -35 68 -45 20 -9 382 -240 397 -252 6 -6 27 -19 45 -29 18 -11
74 -46 123 -79 50 -33 117 -77 150 -99 33 -21 62 -42 63 -46 2 -5 8 -8 13 -8
6 0 38 -19 73 -43 34 -23 69 -46 78 -52 44 -27 374 -251 378 -256 3 -3 19 -14
35 -23 39 -21 70 -41 142 -92 32 -22 63 -43 68 -45 11 -4 351 -227 397 -260
15 -10 30 -19 34 -19 4 0 21 -10 38 -23 73 -55 362 -223 491 -286 182 -88 281
-120 390 -123 40 -2 133 7 190 18 17 3 35 7 40 8 6 1 16 5 23 9 6 5 12 6 12 3
0 -3 25 4 55 14 130 45 181 97 179 185 -2 81 -64 183 -147 243 -83 60 -591
374 -632 391 -5 2 -27 15 -48 28 -21 13 -54 33 -74 44 -19 11 -132 77 -252
146 -119 69 -236 137 -261 151 -25 14 -133 75 -240 137 -107 61 -202 114 -210
118 -8 4 -31 17 -50 28 -19 12 -55 32 -80 46 -25 13 -61 34 -80 45 -19 11
-116 65 -215 121 -99 55 -196 109 -215 120 -19 11 -69 38 -110 60 -41 22 -79
43 -85 48 -5 4 -46 26 -90 49 -44 24 -92 52 -107 62 -16 11 -28 16 -28 13 0
-3 -12 2 -27 13 -16 10 -62 36 -103 58 -41 21 -77 41 -80 44 -3 3 -48 27 -100
54 -52 27 -96 53 -98 58 -2 4 -11 8 -21 8 -9 0 -22 5 -27 10 -6 6 -39 25 -75
43 -85 45 -227 120 -314 167 -81 43 -208 110 -387 204 -70 36 -150 79 -178 96
-28 16 -53 30 -55 30 -3 0 -62 34 -132 77 -193 115 -220 157 -150 231 68 72
453 234 1012 427 44 15 89 31 100 36 11 4 112 40 225 78 113 38 232 79 265 91
33 12 65 23 70 24 6 2 17 6 25 9 17 6 111 40 245 87 50 18 99 36 110 41 11 5
63 25 115 44 52 20 102 38 110 42 8 3 17 7 20 8 3 1 19 7 35 14 17 7 59 24 95
38 36 14 85 34 110 45 25 11 54 24 65 28 11 4 47 20 80 35 33 15 78 34 100 43
22 9 43 20 46 25 3 5 9 8 13 7 3 0 48 20 100 45 51 25 98 45 104 45 7 0 12 4
12 9 0 5 9 13 21 16 11 4 59 29 106 56 46 27 89 49 94 49 5 0 9 5 9 10 0 6 7
10 15 10 8 0 15 5 15 10 0 6 5 10 10 10 17 0 160 103 224 160 56 51 116 110
116 115 0 4 19 29 45 59 52 58 97 207 90 296 -4 55 -43 170 -57 170 -5 0 -8 6
-8 14 0 19 -150 170 -189 191 -17 8 -31 19 -31 24 0 5 -8 11 -17 15 -19 6 -54
27 -63 37 -10 11 -208 108 -290 142 -91 38 -252 96 -285 103 -11 2 -48 13 -83
24 -56 18 -228 63 -292 76 -13 3 -56 12 -95 20 -97 21 -142 27 -300 39 -209
16 -218 16 -740 41 -156 7 -561 11 -615 6z m1815 -606 c239 -12 320 -24 372
-56 45 -27 107 -126 119 -188 8 -40 -43 -106 -167 -217 -90 -81 -399 -295
-425 -295 -7 0 -14 -4 -16 -9 -5 -15 -362 -190 -563 -276 -122 -52 -162 -68
-255 -105 -58 -22 -120 -48 -139 -57 -18 -8 -39 -16 -45 -18 -14 -3 -43 -14
-83 -31 -17 -8 -35 -14 -41 -14 -5 0 -30 -9 -56 -21 -26 -11 -55 -22 -64 -25
-9 -2 -69 -22 -132 -45 -63 -22 -119 -42 -125 -43 -5 -2 -23 -9 -40 -15 -16
-7 -34 -14 -40 -15 -5 -1 -57 -17 -115 -36 -58 -19 -109 -35 -115 -36 -5 -1
-55 -16 -110 -34 -55 -17 -107 -33 -115 -35 -455 -120 -600 -141 -674 -96 -60
38 -143 173 -162 265 -2 10 -8 33 -13 50 -10 33 -27 137 -37 226 -15 136 -3
555 16 555 1 0 3 10 6 23 15 81 122 210 205 247 21 10 39 22 39 27 0 4 8 8 18
8 10 0 22 4 27 9 10 8 204 89 234 97 9 2 57 17 106 34 50 17 102 33 117 35 15
3 40 10 55 16 15 6 42 13 58 15 17 2 41 6 55 8 120 21 153 26 215 31 28 3 70
7 95 9 25 3 115 8 200 12 85 3 156 7 158 9 5 4 1325 -4 1437 -9z"/>
</g>
</svg>
