 <svg  version="1.0" xmlns="http://www.w3.org/2000/svg"  width="114.000000pt" height="126.000000pt" viewBox="0 0 114.000000 126.000000"  preserveAspectRatio="xMidYMid meet">  <g transform="translate(0.000000,126.000000) scale(0.100000,-0.100000)" fill="#313131" stroke="none"> <path d="M370 1167 c-3 -3 -21 -7 -40 -10 -60 -9 -136 -36 -165 -59 l-28 -22 -21 26 c-26 33 -65 44 -89 26 -17 -13 -18 -21 -6 -118 8 -65 13 -251 14 -485 1 -417 3 -433 57 -456 26 -10 35 -10 57 2 l26 15 3 199 c1 110 7 204 12 209 18 18 223 -97 470 -263 294 -197 328 -215 395 -202 63 12 76 35 42 79 -17 22 -487 290 -732 417 -60 31 -117 63 -125 71 -28 27 4 43 280 138 312 107 433 181 432 262 0 64 -105 125 -277 159 -42 8 -299 19 -305 12z m426 -131 c8 -11 14 -24 14 -29 0 -16 -58 -64 -116 -97 -137 -77 -468 -189 -504 -170 -28 15 -45 70 -45 146 0 86 12 104 94 135 84 32 137 37 349 36 179 -2 195 -3 208 -21z"/> </g> </svg> 